HIERARCHY
ROOT hip
{
  OFFSET 0 0 0
  CHANNELS 6 Xposition Yposition Zposition Zrotation Yrotation Xrotation
  JOINT abdomen
  {
    OFFSET 0 20.6881 -0.73152
    CHANNELS 3 Zrotation Xrotation Yrotation
    JOINT chest
    {
      OFFSET 0 11.7043 -0.48768
      CHANNELS 3 Zrotation Xrotation Yrotation
      JOINT neck
      {
        OFFSET 0 22.1894 -2.19456
        CHANNELS 3 Zrotation Xrotation Yrotation
        JOINT head
        {
          OFFSET -0.24384 7.07133 1.2192
          CHANNELS 3 Zrotation Xrotation Yrotation
          JOINT leftEye
          {
            OFFSET 4.14528 8.04674 8.04672
            CHANNELS 3 Zrotation Xrotation Yrotation
            End Site
            {
              OFFSET 1 0 0
            }
          }
          JOINT rightEye
          {
            OFFSET -3.6576 8.04674 8.04672
            CHANNELS 3 Zrotation Xrotation Yrotation
            End Site
            {
              OFFSET 1 0 0
            }
          }
        }
      }
      JOINT rCollar
      {
        OFFSET -2.68224 19.2634 -4.8768
        CHANNELS 3 Zrotation Xrotation Yrotation
        JOINT rShldr
        {
          OFFSET -8.77824 -1.95073 1.46304
          CHANNELS 3 Zrotation Xrotation Yrotation
          JOINT rForeArm
          {
            OFFSET -28.1742 -1.7115 0.48768
            CHANNELS 3 Zrotation Xrotation Yrotation
            JOINT rHand
            {
              OFFSET -22.5879 0.773209 7.07136
              CHANNELS 3 Zrotation Xrotation Yrotation
              JOINT rThumb1
              {
                OFFSET -1.2192 -0.487915 3.41376
                CHANNELS 3 Zrotation Xrotation Yrotation
                JOINT rThumb2
                {
                  OFFSET -3.37035 -0.52449 3.41376
                  CHANNELS 3 Zrotation Xrotation Yrotation
                  End Site
                  {
                    OFFSET -1.78271 -1.18214 1.43049
                  }
                }
              }
              JOINT rIndex1
              {
                OFFSET -7.75947 0.938293 5.60832
                CHANNELS 3 Zrotation Xrotation Yrotation
                JOINT rIndex2
                {
                  OFFSET -2.54057 -0.884171 1.56538
                  CHANNELS 3 Zrotation Xrotation Yrotation
                  End Site
                  {
                    OFFSET -1.62519 -0.234802 1.16502
                  }
                }
              }
              JOINT rMid1
              {
                OFFSET -8.24714 1.18213 3.41376
                CHANNELS 3 Zrotation Xrotation Yrotation
                JOINT rMid2
                {
                  OFFSET -3.10165 -0.590103 1.0647
                  CHANNELS 3 Zrotation Xrotation Yrotation
                  End Site
                  {
                    OFFSET -2.48547 -0.328903 0.83742
                  }
                }
              }
              JOINT rRing1
              {
                OFFSET -8.82822 0.546677 1.51678
                CHANNELS 3 Zrotation Xrotation Yrotation
                JOINT rRing2
                {
                  OFFSET -2.60934 -0.819778 -0.0198488
                  CHANNELS 3 Zrotation Xrotation Yrotation
                  End Site
                  {
                    OFFSET -2.33842 -0.294052 0.168128
                  }
                }
              }
              JOINT rPinky1
              {
                OFFSET -8.27202 -0.0477905 -0.4584
                CHANNELS 3 Zrotation Xrotation Yrotation
                JOINT rPinky2
                {
                  OFFSET -1.82734 -0.647385 -0.700984
                  CHANNELS 3 Zrotation Xrotation Yrotation
                  End Site
                  {
                    OFFSET -1.69225 -0.51767 -0.607171
                  }
                }
              }
            }
          }
        }
      }
      JOINT lCollar
      {
        OFFSET 2.68224 19.2634 -4.8768
        CHANNELS 3 Zrotation Xrotation Yrotation
        JOINT lShldr
        {
          OFFSET 8.77824 -1.95073 1.46304
          CHANNELS 3 Zrotation Xrotation Yrotation
          JOINT lForeArm
          {
            OFFSET 28.1742 -1.7115 0.48768
            CHANNELS 3 Zrotation Xrotation Yrotation
            JOINT lHand
            {
              OFFSET 22.5879 0.773209 7.07136
              CHANNELS 3 Zrotation Xrotation Yrotation
              JOINT lThumb1
              {
                OFFSET 1.2192 -0.487915 3.41376
                CHANNELS 3 Zrotation Xrotation Yrotation
                JOINT lThumb2
                {
                  OFFSET 3.37035 -0.52449 3.41376
                  CHANNELS 3 Zrotation Xrotation Yrotation
                  End Site
                  {
                    OFFSET 1.78271 -1.18214 1.43049
                  }
                }
              }
              JOINT lIndex1
              {
                OFFSET 7.75947 0.938293 5.60832
                CHANNELS 3 Zrotation Xrotation Yrotation
                JOINT lIndex2
                {
                  OFFSET 2.54057 -0.884171 1.56538
                  CHANNELS 3 Zrotation Xrotation Yrotation
                  End Site
                  {
                    OFFSET 1.62519 -0.234802 1.16502
                  }
                }
              }
              JOINT lMid1
              {
                OFFSET 8.24714 1.18213 3.41376
                CHANNELS 3 Zrotation Xrotation Yrotation
                JOINT lMid2
                {
                  OFFSET 3.10165 -0.590103 1.0647
                  CHANNELS 3 Zrotation Xrotation Yrotation
                  End Site
                  {
                    OFFSET 2.48547 -0.328903 0.83742
                  }
                }
              }
              JOINT lRing1
              {
                OFFSET 8.82822 0.546677 1.51678
                CHANNELS 3 Zrotation Xrotation Yrotation
                JOINT lRing2
                {
                  OFFSET 2.60934 -0.819778 -0.0198488
                  CHANNELS 3 Zrotation Xrotation Yrotation
                  End Site
                  {
                    OFFSET 2.33842 -0.294052 0.168128
                  }
                }
              }
              JOINT lPinky1
              {
                OFFSET 8.27202 -0.0477905 -0.4584
                CHANNELS 3 Zrotation Xrotation Yrotation
                JOINT lPinky2
                {
                  OFFSET 1.82734 -0.647385 -0.700984
                  CHANNELS 3 Zrotation Xrotation Yrotation
                  End Site
                  {
                    OFFSET 1.69225 -0.51767 -0.607171
                  }
                }
              }
            }
          }
        }
      }
    }
  }
  JOINT rButtock
  {
    OFFSET -8.77824 4.35084 1.2192
    CHANNELS 3 Zrotation Xrotation Yrotation
    JOINT rThigh
    {
      OFFSET 0 -1.70687 -2.19456
      CHANNELS 3 Zrotation Xrotation Yrotation
      JOINT rShin
      {
        OFFSET 0 -36.8199 0.73152
        CHANNELS 3 Zrotation Xrotation Yrotation
        JOINT rFoot
        {
          OFFSET 0.73152 -45.1104 -5.12064
          CHANNELS 3 Zrotation Xrotation Yrotation
          End Site
          {
            OFFSET -1.1221 -3.69964 12.103
          }
        }
      }
    }
  }
  JOINT lButtock
  {
    OFFSET 8.77824 4.35084 1.2192
    CHANNELS 3 Zrotation Xrotation Yrotation
    JOINT lThigh
    {
      OFFSET 0 -1.70687 -2.19456
      CHANNELS 3 Zrotation Xrotation Yrotation
      JOINT lShin
      {
        OFFSET 0 -36.8199 0.73152
        CHANNELS 3 Zrotation Xrotation Yrotation
        JOINT lFoot
        {
          OFFSET -0.73152 -45.1104 -5.12064
          CHANNELS 3 Zrotation Xrotation Yrotation
          End Site
          {
            OFFSET 1.1221 -3.69964 12.103
          }
        }
      }
    }
  }
}
MOTION
Frames:	4
Frame Time:	0.03333
0.011043348670852804 62.309152024250025 0.11254065342832986 -2.599421501159668 -3.128638982772827 7.020993709564209 -2.7229537963867188 14.12082290649414 3.820948600769043 2.899813175201416 -9.411182403564453 1.4551193714141846 -5.192586421966553 14.566523551940918 -3.5902657508850098 9.172013282775879 -22.251676559448242 -5.212244510650635 -0.029703311622142792 0.005511792376637459 -0.019222509115934372 0.026283394545316696 0.027117272838950157 0.042317770421504974 0.21590526401996613 0.01773723214864731 -0.005828732158988714 46.354652404785156 39.83351135253906 17.57329750061035 -25.71305274963379 -26.017414093017578 68.01129150390625 -1.6119987964630127 -9.639802932739258 -1.6906836032867432 -0.02359565533697605 -0.026428334414958954 -0.0014014597982168198 0.031559281051158905 -0.04140900820493698 0.020529037341475487 -0.047042883932590485 0.040334608405828476 -0.01312911044806242 7.818239212036133 5.474244594573975 0.39461109042167664 -0.06781458109617233 0.25453102588653564 -0.09074660390615463 2.967273235321045 0.9308050274848938 0.018108591437339783 -0.003459018422290683 -0.024559851735830307 0.008493885397911072 10.24482250213623 0.8236039876937866 -0.07397352904081345 0.04838262125849724 0.04379451647400856 0.05560918524861336 2.244374990463257 -0.7545018196105957 -0.31963205337524414 0.07618547230958939 -0.010428941808640957 0.035377636551856995 -55.364994049072266 39.6506462097168 -25.043811798095703 24.901227951049805 -23.263147354125977 -64.61016082763672 1.9950928688049316 -14.120380401611328 2.133009672164917 0.027358250692486763 0.007418646011501551 -0.15422354638576508 -0.09023100137710571 0.01136743277311325 0.04586746543645859 -0.006108212284743786 -0.05312175303697586 0.13412296772003174 -7.798952102661133 5.334680557250977 -0.3343028724193573 0.02820938639342785 0.0010808405932039022 -0.004710161592811346 -2.975832223892212 1.03848397731781 -0.1708550900220871 -0.023280438035726547 0.0350816585123539 -0.010719935409724712 -10.308981895446777 0.6815661191940308 -0.06570563465356827 -0.054337259382009506 -0.038541506975889206 -0.1149011179804802 -2.2762649059295654 -0.7660742402076721 0.19296328723430634 -0.024138281121850014 -0.051685087382793427 0.058561086654663086 -24.50166130065918 -43.673789978027344 -18.68406105041504 -1.3606001138687134 65.56014251708984 2.839522123336792 -4.42689323425293 -11.966534614562988 -9.346512794494629 -0.008761517703533173 -0.02798623777925968 -0.0064030797220766544 29.627164840698242 -45.53740692138672 21.518573760986328 1.6958011388778687 65.86039733886719 -2.8070242404937744 4.824169158935547 -12.422019958496094 13.22516918182373
0.014975029672694285 62.51082701987299 0.2285102219025648 -3.1964704990386963 0.6663253307342529 10.479690551757812 -2.6810407638549805 14.571149826049805 3.824291229248047 2.605658769607544 -9.799881935119629 1.3151803016662598 -4.802302837371826 14.414288520812988 -3.5838193893432617 8.953872680664062 -21.820585250854492 -5.44200325012207 0.06583991646766663 -0.1352972537279129 -0.11967552453279495 0.10828232765197754 -0.028728947043418884 -0.043162450194358826 -0.15585580468177795 0.14538417756557465 0.16417425870895386 46.9307975769043 39.69281005859375 17.82246971130371 -25.767812728881836 -26.50887107849121 68.83502960205078 -1.5872136354446411 -11.460542678833008 -1.5719878673553467 0.16270630061626434 -0.12954320013523102 0.1486356556415558 0.059486858546733856 -0.11747600883245468 0.0002936932723969221 0.056745823472738266 0.14313744008541107 -0.05058549717068672 7.814852714538574 5.598272323608398 0.4303041100502014 -0.020669719204306602 0.014439156278967857 -0.1440717726945877 2.904524087905884 1.017288088798523 0.20645011961460114 0.155104860663414 0.007020522840321064 0.04442247375845909 10.266416549682617 0.6418769359588623 0.08529543876647949 0.15715956687927246 0.1049424260854721 0.12119849771261215 2.209906578063965 -0.8605960011482239 -0.2195160835981369 0.1666833460330963 -0.08735433220863342 9.969703387469053e-05 -54.59099578857422 40.61747741699219 -26.450239181518555 24.814905166625977 -23.45025634765625 -65.93101501464844 1.9697368144989014 -14.29591178894043 2.1447665691375732 0.02677726186811924 -0.1630212664604187 0.07309854030609131 0.2209290862083435 0.08166968077421188 -0.13989518582820892 -0.14947955310344696 0.07960175722837448 -0.14332307875156403 -7.869460105895996 5.407238483428955 -0.3821212649345398 0.14948390424251556 0.07134347409009933 -0.028723599389195442 -2.905266523361206 0.8492273092269897 -0.22918207943439484 0.16242928802967072 -0.0023473864421248436 -0.040641553699970245 -10.113883972167969 0.9104345440864563 -0.1654367446899414 0.05592216178774834 -0.11252584308385849 -0.17346005141735077 -2.2606630325317383 -0.6401798129081726 0.21497373282909393 0.041069574654102325 -0.1773330718278885 0.09772756695747375 -25.384185791015625 -41.19127655029297 -19.22902488708496 -1.4614603519439697 64.21678161621094 2.3691964149475098 -4.65375280380249 -11.640680313110352 -9.689311027526855 -0.19365942478179932 -0.04488423094153404 0.045007795095443726 30.714570999145508 -42.28924560546875 21.150835037231445 1.7058405876159668 67.11839294433594 -2.729764223098755 5.180429935455322 -12.095399856567383 13.125295639038086
-0.06983105366141701 62.89366595304137 0.5922483176135973 2.1158127784729004 21.69045639038086 3.255241870880127 -7.746791839599609 15.608546257019043 1.3453091382980347 4.5251922607421875 -9.954692840576172 0.5504159927368164 -7.769383907318115 17.034515380859375 -10.184131622314453 11.511857032775879 -24.454301834106445 -17.893728256225586 -0.04954582452774048 -0.34458234906196594 -0.2801206409931183 0.036191899329423904 0.00861450470983982 0.05480378121137619 0.3069557249546051 0.26488634943962097 0.1765802949666977 40.72414779663086 24.455364227294922 26.441007614135742 -23.973012924194336 -20.9025936126709 60.390769958496094 -0.7457855939865112 3.5378530025482178 0.710713803768158 0.06917563080787659 -0.06648824363946915 0.005150557029992342 -0.06040804460644722 -0.22550834715366364 -0.07553604990243912 -0.3985171914100647 0.30183249711990356 0.1309230476617813 7.620293140411377 5.429105758666992 0.05456625297665596 0.18864642083644867 -0.1004013866186142 -0.01874024048447609 2.9226925373077393 1.0112591981887817 0.05532258003950119 -0.33487412333488464 -0.17300207912921906 -0.04240543767809868 10.28610897064209 0.722174882888794 -0.17221713066101074 0.0751219391822815 0.15510502457618713 0.182316854596138 2.3413875102996826 -0.7772778868675232 -0.37249159812927246 0.04234440252184868 0.27751582860946655 -0.2993292212486267 -65.39435577392578 56.3880729675293 -10.551640510559082 26.991249084472656 -32.70647048950195 -75.84626770019531 2.2535698413848877 -33.65644836425781 5.526126861572266 -0.04451708868145943 -0.1510787308216095 -0.398179829120636 0.0021093564573675394 0.21929727494716644 -0.14913448691368103 0.025343790650367737 0.01843525841832161 0.37306633591651917 -7.8844757080078125 5.484403610229492 -0.21550491452217102 0.29038575291633606 -0.05190806835889816 0.17128323018550873 -2.786501884460449 0.889150083065033 -0.37689009308815 0.23408281803131104 0.09482887387275696 0.15910965204238892 -10.248615264892578 0.7160151600837708 -0.011902306228876114 0.25329986214637756 -0.0431869700551033 -0.19134508073329926 -2.358807325363159 -0.41333848237991333 0.33694443106651306 -0.23940524458885193 0.11898370087146759 0.25685450434684753 -38.36018753051758 -54.694793701171875 -29.477306365966797 -2.534276008605957 69.7816162109375 2.8029751777648926 0.3368285000324249 -3.4142348766326904 2.1849260330200195 0.13393501937389374 -0.09923604130744934 0.1106065884232521 14.881913185119629 -21.978506088256836 9.257345199584961 0.7818742990493774 56.34156799316406 -2.9539918899536133 8.885558128356934 -17.017229080200195 23.57053565979004
-0.3060321219302691 62.20851601701906 1.0933331932405352 1.1525943279266357 28.557538986206055 4.861345291137695 -8.462942123413086 13.402212142944336 0.17200599610805511 6.169017791748047 -9.478275299072266 0.9599758982658386 -7.567340850830078 17.453262329101562 -10.472452163696289 13.36190128326416 -24.38490867614746 -19.322284698486328 0.05511554703116417 0.05405013635754585 -0.132553830742836 0.7173203229904175 0.06327036768198013 0.39879554510116577 -0.0038641130086034536 0.038865819573402405 -0.17069754004478455 41.962310791015625 25.419401168823242 21.208309173583984 -26.412385940551758 -26.87660026550293 67.18647766113281 -0.48207420110702515 1.104913353919983 0.517011821269989 0.2992999255657196 0.05907293036580086 0.009331540204584599 0.10733477026224136 -0.31059446930885315 0.5579776167869568 0.02809739299118519 0.1250399649143219 0.03697846457362175 7.765201091766357 5.233569622039795 0.40785595774650574 -0.167449951171875 0.33505284786224365 0.4744953215122223 2.917332172393799 0.994108259677887 0.08404214680194855 -0.22886960208415985 -0.12132769078016281 -0.2569011449813843 10.197793960571289 0.8120549917221069 0.08464252948760986 0.23210521042346954 0.1876150220632553 0.29026252031326294 2.168555498123169 -0.4101177752017975 -0.3100821077823639 0.26520997285842896 0.09845049679279327 -0.060079555958509445 -63.59293746948242 60.304996490478516 -11.581609725952148 28.397192001342773 -38.912994384765625 -81.18792724609375 2.2623047828674316 -35.899253845214844 6.175057411193848 -0.37531837821006775 -0.2223411500453949 -0.26586809754371643 0.15047632157802582 0.19563497602939606 -0.17371244728565216 -0.2865614891052246 0.4593204855918884 -0.2638753056526184 -7.783339023590088 5.2688188552856445 -0.22954018414020538 -0.17561808228492737 0.1692151576280594 -0.17736534774303436 -3.067239284515381 0.9145694375038147 -0.4767792224884033 0.3640015125274658 0.019240224733948708 -0.04559357836842537 -10.36143684387207 0.9969122409820557 -0.05948984995484352 0.4771217107772827 -0.5577855110168457 0.06150968000292778 -1.787523865699768 -0.5030945539474487 0.23185616731643677 0.06733039766550064 -0.32978418469429016 -0.35019373893737793 -43.93678283691406 -57.34698486328125 -36.11821365356445 -1.7981406450271606 66.7996826171875 2.035738706588745 0.19293439388275146 -2.1296803951263428 5.350581169128418 -0.13399900496006012 0.2663010060787201 -0.08208886533975601 11.929187774658203 -13.5490140914917 6.020289421081543 1.3497389554977417 54.552146911621094 -3.235170602798462 9.875411033630371 -17.79908561706543 27.369464874267578
